<mxfile>
    <diagram id="KFGv78dDTJR239rkCX04" name="Page-1">
        <mxGraphModel dx="774" dy="491" grid="1" gridSize="10" guides="1" tooltips="1" connect="1" arrows="1" fold="1" page="1" pageScale="1" pageWidth="827" pageHeight="1169" math="0" shadow="0">
            <root>
                <mxCell id="0"/>
                <mxCell id="1" parent="0"/>
                <mxCell id="20" style="edgeStyle=orthogonalEdgeStyle;rounded=0;orthogonalLoop=1;jettySize=auto;html=1;" parent="1" source="18" target="19" edge="1">
                    <mxGeometry relative="1" as="geometry"/>
                </mxCell>
                <mxCell id="18" value="start" style="rounded=1;whiteSpace=wrap;html=1;" parent="1" vertex="1">
                    <mxGeometry x="354" y="40" width="120" height="60" as="geometry"/>
                </mxCell>
                <mxCell id="22" style="edgeStyle=orthogonalEdgeStyle;rounded=0;orthogonalLoop=1;jettySize=auto;html=1;" parent="1" source="19" target="21" edge="1">
                    <mxGeometry relative="1" as="geometry"/>
                </mxCell>
                <mxCell id="19" value="i = -11" style="rounded=0;whiteSpace=wrap;html=1;" parent="1" vertex="1">
                    <mxGeometry x="354" y="180" width="120" height="60" as="geometry"/>
                </mxCell>
                <mxCell id="24" style="edgeStyle=orthogonalEdgeStyle;rounded=0;orthogonalLoop=1;jettySize=auto;html=1;" parent="1" source="21" target="23" edge="1">
                    <mxGeometry relative="1" as="geometry"/>
                </mxCell>
                <mxCell id="29" style="edgeStyle=orthogonalEdgeStyle;rounded=0;orthogonalLoop=1;jettySize=auto;html=1;" parent="1" source="21" target="28" edge="1">
                    <mxGeometry relative="1" as="geometry"/>
                </mxCell>
                <mxCell id="21" value="i &amp;lt;= -6" style="rhombus;whiteSpace=wrap;html=1;" parent="1" vertex="1">
                    <mxGeometry x="374" y="320" width="80" height="80" as="geometry"/>
                </mxCell>
                <mxCell id="26" style="edgeStyle=orthogonalEdgeStyle;rounded=0;orthogonalLoop=1;jettySize=auto;html=1;" parent="1" source="23" target="25" edge="1">
                    <mxGeometry relative="1" as="geometry"/>
                </mxCell>
                <mxCell id="23" value="i" style="shape=display;whiteSpace=wrap;html=1;" parent="1" vertex="1">
                    <mxGeometry x="240" y="440" width="80" height="40" as="geometry"/>
                </mxCell>
                <mxCell id="27" style="edgeStyle=orthogonalEdgeStyle;rounded=0;orthogonalLoop=1;jettySize=auto;html=1;entryX=0;entryY=0;entryDx=0;entryDy=0;" parent="1" source="25" target="21" edge="1">
                    <mxGeometry relative="1" as="geometry">
                        <Array as="points">
                            <mxPoint x="280" y="680"/>
                            <mxPoint x="160" y="680"/>
                            <mxPoint x="160" y="300"/>
                            <mxPoint x="394" y="300"/>
                        </Array>
                    </mxGeometry>
                </mxCell>
                <mxCell id="25" value="i += 1" style="rounded=0;whiteSpace=wrap;html=1;" parent="1" vertex="1">
                    <mxGeometry x="220" y="560" width="120" height="60" as="geometry"/>
                </mxCell>
                <mxCell id="28" value="End" style="rounded=0;whiteSpace=wrap;html=1;" parent="1" vertex="1">
                    <mxGeometry x="490" y="440" width="120" height="60" as="geometry"/>
                </mxCell>
                <mxCell id="30" value="True" style="text;html=1;strokeColor=none;fillColor=none;align=center;verticalAlign=middle;whiteSpace=wrap;rounded=0;" parent="1" vertex="1">
                    <mxGeometry x="310" y="340" width="40" height="20" as="geometry"/>
                </mxCell>
                <mxCell id="31" value="False" style="text;html=1;strokeColor=none;fillColor=none;align=center;verticalAlign=middle;whiteSpace=wrap;rounded=0;" parent="1" vertex="1">
                    <mxGeometry x="474" y="340" width="40" height="20" as="geometry"/>
                </mxCell>
                <mxCell id="32" value="&lt;h1&gt;การคิด End&lt;/h1&gt;&lt;p&gt;&lt;span&gt;จบที่ end -1 --&amp;gt; -5 - 1 = -6&lt;/span&gt;&lt;br&gt;&lt;/p&gt;&lt;p&gt;เพราะมันจะขยับไปทางซ้าย&lt;/p&gt;&lt;p&gt;-6 -5 -4 -3 -2 -1 0 1 2 3 4 5 6&lt;span&gt;&lt;br&gt;&lt;/span&gt;&lt;/p&gt;" style="text;html=1;strokeColor=none;fillColor=none;spacing=5;spacingTop=-20;whiteSpace=wrap;overflow=hidden;rounded=0;" parent="1" vertex="1">
                    <mxGeometry x="640" y="200" width="190" height="120" as="geometry"/>
                </mxCell>
                <mxCell id="33" value="&lt;h1&gt;Logic การจบ&lt;/h1&gt;&lt;p&gt;--&amp;gt; จบก่อนตัวสุดท้าย&lt;/p&gt;&lt;p&gt;i = -11, -10, -9, -8, -7, -6, -5&lt;/p&gt;&lt;p&gt;เวลาโค้ดมันเขียนให้เรามันจะเขียนว่า -5 แต่มันจะจบที่ -6&lt;/p&gt;" style="text;html=1;strokeColor=none;fillColor=none;spacing=5;spacingTop=-20;whiteSpace=wrap;overflow=hidden;rounded=0;" parent="1" vertex="1">
                    <mxGeometry x="600" y="40" width="210" height="140" as="geometry"/>
                </mxCell>
                <mxCell id="34" value="&lt;h1&gt;การไล่โค้ด&lt;/h1&gt;&lt;p&gt;น้อย --&amp;gt; มาก (Loop แบบเพิ่มค่า)&lt;br&gt;&lt;/p&gt;&lt;p&gt;for i in range(-11,-5):&amp;nbsp;&lt;span&gt;--&amp;gt; (ติดหนี้ 11 ล้าน VS&amp;nbsp;&lt;/span&gt;&lt;/p&gt;ติดหนี้ 5 ล้าน&lt;span&gt;)&lt;/span&gt;&lt;br&gt;&lt;p&gt;--&amp;gt; i = -11, -10, -9, -8, -7, -6&lt;/p&gt;&lt;p&gt;Logic การจบ --&amp;gt; จบก่อนตัวสุดท้าย&lt;br&gt;&lt;/p&gt;&lt;p&gt;ผมจะให้จบก่อนตัวสุดท้าย 1 ในที่นี้ ก็คือ -6&lt;/p&gt;" style="text;html=1;strokeColor=none;fillColor=none;spacing=5;spacingTop=-20;whiteSpace=wrap;overflow=hidden;rounded=0;" parent="1" vertex="1">
                    <mxGeometry x="80" y="40" width="240" height="200" as="geometry"/>
                </mxCell>
                <mxCell id="36" value="&lt;h1&gt;ยกตัวอย่าง Loop ถอยหลัง&lt;/h1&gt;&lt;p&gt;for i in range(4,-3,-1)&lt;/p&gt;&lt;p&gt;--&amp;gt; i = 4, 3, 2, 1, 0, -1, -2&lt;/p&gt;" style="text;html=1;strokeColor=none;fillColor=none;spacing=5;spacingTop=-20;whiteSpace=wrap;overflow=hidden;rounded=0;" parent="1" vertex="1">
                    <mxGeometry x="680" y="360" width="280" height="120" as="geometry"/>
                </mxCell>
            </root>
        </mxGraphModel>
    </diagram>
</mxfile>